<svg width="36" height="36" viewBox="0 0 36 36" fill="none" xmlns="http://www.w3.org/2000/svg">
<path d="M17.9997 14.996C18.9919 14.996 19.7992 14.1886 19.7992 13.1965C19.7992 12.2044 18.9919 11.397 17.9997 11.397C17.0076 11.397 16.2002 12.2044 16.2002 13.1965C16.2002 14.1886 17.0076 14.996 17.9997 14.996ZM17.9997 12.5967C18.3308 12.5967 18.5996 12.8654 18.5996 13.1965C18.5996 13.5276 18.3308 13.7963 17.9997 13.7963C17.6686 13.7963 17.3999 13.5276 17.3999 13.1965C17.3999 12.8654 17.6686 12.5967 17.9997 12.5967Z" fill="#3A3A3A"/>
<path d="M18.0002 16.7956C18.3315 16.7956 18.6001 16.5271 18.6001 16.1958C18.6001 15.8645 18.3315 15.5959 18.0002 15.5959C17.6689 15.5959 17.4004 15.8645 17.4004 16.1958C17.4004 16.5271 17.6689 16.7956 18.0002 16.7956Z" fill="#3A3A3A"/>
<path d="M18.0002 10.1972C18.3315 10.1972 18.6001 9.92868 18.6001 9.5974C18.6001 9.26612 18.3315 8.99756 18.0002 8.99756C17.6689 8.99756 17.4004 9.26612 17.4004 9.5974C17.4004 9.92868 17.6689 10.1972 18.0002 10.1972Z" fill="#3A3A3A"/>
<path d="M15.6008 16.7956C15.9321 16.7956 16.2007 16.5271 16.2007 16.1958C16.2007 15.8645 15.9321 15.5959 15.6008 15.5959C15.2695 15.5959 15.001 15.8645 15.001 16.1958C15.001 16.5271 15.2695 16.7956 15.6008 16.7956Z" fill="#3A3A3A"/>
<path d="M16.8 17.9951C17.1313 17.9951 17.3999 17.7265 17.3999 17.3952C17.3999 17.064 17.1313 16.7954 16.8 16.7954C16.4688 16.7954 16.2002 17.064 16.2002 17.3952C16.2002 17.7265 16.4688 17.9951 16.8 17.9951Z" fill="#3A3A3A"/>
<path d="M20.3996 16.7956C20.7309 16.7956 20.9995 16.5271 20.9995 16.1958C20.9995 15.8645 20.7309 15.5959 20.3996 15.5959C20.0684 15.5959 19.7998 15.8645 19.7998 16.1958C19.7998 16.5271 20.0684 16.7956 20.3996 16.7956Z" fill="#3A3A3A"/>
<path d="M19.1995 17.9951C19.5307 17.9951 19.7993 17.7265 19.7993 17.3952C19.7993 17.064 19.5307 16.7954 19.1995 16.7954C18.8682 16.7954 18.5996 17.064 18.5996 17.3952C18.5996 17.7265 18.8682 17.9951 19.1995 17.9951Z" fill="#3A3A3A"/>
<path d="M35.9953 17.9952C35.9953 14.7117 35.1069 11.6339 33.5647 8.9814L33.5641 8.96221L33.4862 8.83084C33.4598 8.78646 33.4292 8.74327 33.4022 8.69888C33.314 8.55312 33.2198 8.41096 33.1275 8.2676C32.9703 8.02406 32.8083 7.78532 32.6392 7.54959C32.5426 7.41462 32.4466 7.28026 32.3471 7.14829C32.3045 7.09191 32.2655 7.03312 32.2229 6.97734L32.1551 6.88976C31.9374 6.61264 31.7112 6.34091 31.4503 6.04459C31.0838 5.6325 30.6867 5.2384 30.2782 4.8569C30.2008 4.78492 30.1253 4.71114 30.0467 4.64036C29.9909 4.59058 29.9387 4.53659 29.8829 4.4874L29.7677 4.38723C29.6904 4.32065 29.604 4.25467 29.5254 4.18868C29.4564 4.1311 29.3868 4.07471 29.3173 4.01833C29.2093 3.93075 29.1091 3.84318 28.9946 3.7538L28.9154 3.69142C28.8668 3.65423 28.814 3.62003 28.7648 3.58344C28.7444 3.56845 28.724 3.55465 28.7036 3.53966C28.3581 3.28352 28 3.03999 27.6329 2.80725C27.5082 2.72807 27.3852 2.64769 27.2586 2.57151C27.2106 2.54272 27.165 2.51033 27.1165 2.48214L26.9287 2.37417C26.672 2.22661 26.411 2.08624 26.1123 1.93388L25.96 1.85591C25.9234 1.83791 25.8838 1.82231 25.8472 1.80432C25.6091 1.68855 25.3679 1.57938 25.1244 1.47381C25.0332 1.43422 24.942 1.39583 24.8497 1.35804C24.5941 1.25247 24.3356 1.15169 24.0747 1.05812C24.0447 1.04732 24.0159 1.03412 23.9859 1.02393L23.7226 0.935151C23.6788 0.920155 23.6326 0.908158 23.5888 0.893762C23.4142 0.836777 23.2391 0.782791 23.0621 0.730605C23.0189 0.718009 22.977 0.703013 22.9338 0.691016L22.662 0.613037C22.6338 0.605239 22.6045 0.59864 22.5757 0.591442C22.5091 0.574047 22.4419 0.557251 22.3747 0.540456C22.1498 0.483471 21.9194 0.429485 21.6777 0.379099C21.6537 0.3743 21.6297 0.368302 21.6057 0.363503C21.5979 0.361704 21.5913 0.359904 21.5835 0.358704C21.5517 0.352106 21.5187 0.348507 21.487 0.342509C21.184 0.282525 20.8781 0.230938 20.5698 0.18715C20.5638 0.18655 20.5572 0.184751 20.5512 0.184151C20.4468 0.169755 20.3413 0.156558 20.2321 0.143962C20.2255 0.143362 20.2189 0.142762 20.2129 0.142162C19.9592 0.11097 19.7036 0.0851773 19.4469 0.0647827C19.4409 0.0641829 19.4349 0.063583 19.4289 0.0629832L19.1056 0.0383898C19.1026 0.0383898 19.1002 0.0383898 19.0972 0.0383898C18.7343 0.0143962 18.369 0 18.0001 0C17.6312 0 17.2665 0.0143962 16.903 0.0365902C16.9 0.0365902 16.8964 0.0365902 16.8934 0.0365902L16.5719 0.0611837C16.5671 0.0617835 16.5623 0.0623834 16.5575 0.0623834C16.3013 0.0827779 16.0464 0.108571 15.7933 0.139763C15.7843 0.140962 15.7747 0.141562 15.7657 0.142762L15.449 0.182351C15.4334 0.184751 15.4184 0.18715 15.4028 0.189549C15.3008 0.204545 15.1988 0.220741 15.0975 0.236937C14.8665 0.274127 14.6332 0.313716 14.389 0.362903C14.3597 0.368902 14.3315 0.377299 14.3027 0.383298C13.9968 0.447481 13.6938 0.520061 13.3933 0.59984C13.3765 0.604639 13.3585 0.607638 13.3411 0.612437L13.0688 0.689816C13.0346 0.699413 13.001 0.71141 12.9668 0.721608C12.7791 0.776193 12.5931 0.833178 12.4078 0.894362C12.3646 0.908758 12.3208 0.920155 12.2776 0.934551L12.0149 1.02333C11.9861 1.03352 11.9585 1.04612 11.9297 1.05632C11.661 1.15289 11.3952 1.25607 11.1325 1.36524C11.0467 1.40063 10.9628 1.43662 10.8776 1.47321C10.6352 1.57818 10.3947 1.68675 10.1578 1.80192C10.1188 1.82051 10.078 1.83671 10.0396 1.85591L9.85606 1.94948C9.77688 1.98967 9.6929 2.03886 9.61372 2.08085C9.50035 2.14083 9.38698 2.20201 9.27541 2.2644C9.19743 2.30758 9.12545 2.34298 9.04507 2.38916L8.88491 2.48154C8.83873 2.50853 8.79494 2.53972 8.74875 2.56732C8.61139 2.65009 8.47762 2.73707 8.34326 2.82285C7.98875 3.04899 7.64325 3.28412 7.30973 3.53066C7.28514 3.54865 7.25995 3.56545 7.23535 3.58404C7.18557 3.62123 7.13218 3.65543 7.08359 3.69322L6.99242 3.7658C6.89225 3.84318 6.79867 3.92595 6.7003 4.00513C6.62052 4.06991 6.54074 4.1347 6.46216 4.20068C6.38778 4.26306 6.3086 4.32305 6.23602 4.38603L6.12205 4.4844C6.06747 4.53239 6.01648 4.58458 5.96249 4.63376C5.86652 4.71894 5.77474 4.80772 5.68177 4.89529C5.41844 5.14243 5.16111 5.40036 4.90977 5.66609C4.8264 5.75487 4.74062 5.84184 4.65844 5.93242C4.61465 5.98101 4.56847 6.02479 4.52528 6.07398C4.29014 6.33971 4.0634 6.61264 3.83126 6.90896L3.78268 6.97134C3.73949 7.02713 3.7011 7.08531 3.65851 7.1417C3.55234 7.28146 3.45096 7.42422 3.34899 7.56698C3.20443 7.76973 3.06407 7.97367 2.9285 8.18122C2.81393 8.35637 2.69996 8.53092 2.59139 8.71028C2.5662 8.75167 2.53801 8.79126 2.51341 8.83264L2.43543 8.96401L2.43483 8.98201C0.892646 11.6339 0.00488281 14.7117 0.00488281 17.9952C0.00488281 23.3176 2.32926 28.1049 6.01408 31.4028V31.4142L6.22102 31.5936C6.3182 31.6776 6.41897 31.7567 6.51795 31.8389C6.54614 31.8623 6.57373 31.8851 6.60192 31.9085C6.79087 32.0639 6.98342 32.2144 7.17837 32.3614C7.21496 32.389 7.25155 32.4172 7.28874 32.4447C7.48189 32.5881 7.67804 32.7273 7.87658 32.8628C7.91437 32.8886 7.95156 32.9144 7.98935 32.9402C8.1903 33.0752 8.39365 33.2053 8.59939 33.3313C8.63778 33.3553 8.67617 33.3793 8.71516 33.4033C8.77155 33.4375 8.82733 33.4747 8.88431 33.5083C8.98569 33.5682 9.09066 33.6204 9.19263 33.6786C9.3222 33.7518 9.45236 33.8244 9.58373 33.894C9.73609 33.9749 9.88905 34.0529 10.0426 34.1291C10.1716 34.1927 10.3011 34.2545 10.4319 34.315C10.5933 34.39 10.7546 34.465 10.9178 34.5352C11.0401 34.588 11.1649 34.6366 11.2885 34.687C11.4594 34.7559 11.6304 34.8267 11.8031 34.8903C11.9291 34.9365 12.0575 34.9773 12.184 35.0205C12.4564 35.1134 12.7299 35.2004 13.0064 35.2802C13.2002 35.336 13.3933 35.3924 13.5895 35.4421C13.6962 35.4691 13.8036 35.4919 13.911 35.5165C14.1353 35.5687 14.3603 35.6185 14.5876 35.6623C14.6698 35.6779 14.7526 35.6923 14.8347 35.7067C15.0999 35.7541 15.3668 35.7955 15.6361 35.8308C15.6865 35.8374 15.7369 35.844 15.7879 35.85C16.0986 35.8884 16.4117 35.919 16.7272 35.9412C16.7386 35.9418 16.75 35.9436 16.7614 35.9448L16.843 35.9502C16.9372 35.9562 17.0307 35.9646 17.1255 35.9694L17.5676 35.9994L17.5634 35.9808C17.7074 35.9826 17.8525 35.9904 18.0001 35.9904C18.1404 35.9904 18.279 35.9832 18.4188 35.9796L18.414 35.9994L18.8801 35.9676C18.9724 35.9634 19.0636 35.955 19.1554 35.949L19.2412 35.943C19.2526 35.9424 19.2639 35.9406 19.2753 35.9394C19.5909 35.9172 19.904 35.8866 20.2147 35.8482C20.2651 35.8422 20.3155 35.8356 20.3665 35.829C20.6358 35.7937 20.9027 35.7517 21.1678 35.7049C21.25 35.6905 21.3328 35.6761 21.415 35.6605C21.6423 35.6167 21.8679 35.5669 22.0916 35.5147C22.199 35.4901 22.3063 35.4673 22.4131 35.4403C22.6093 35.3906 22.8024 35.3348 22.9962 35.2784C23.2727 35.1986 23.5462 35.1116 23.8185 35.0187C23.9457 34.9749 24.0741 34.9347 24.1994 34.8885C24.3722 34.8249 24.5431 34.7541 24.7141 34.6852C24.8383 34.6354 24.9624 34.5862 25.0848 34.5334C25.248 34.4632 25.4093 34.3888 25.5707 34.3132C25.7014 34.2527 25.831 34.1909 25.96 34.1273C26.1135 34.0511 26.2665 33.9725 26.4188 33.8922C26.5502 33.822 26.6804 33.75 26.8099 33.6768C26.9125 33.6192 27.0169 33.5664 27.1183 33.5065C27.1746 33.4735 27.2292 33.4369 27.2856 33.4027C27.3276 33.3775 27.3684 33.3511 27.4104 33.3253C27.6119 33.2011 27.8117 33.074 28.009 32.9414C28.0516 32.9126 28.0936 32.8832 28.1362 32.8544C28.3299 32.7219 28.5213 32.5863 28.7102 32.4459C28.751 32.4154 28.7918 32.3842 28.8326 32.3536C29.0227 32.2096 29.2099 32.0633 29.394 31.9121C29.4276 31.8845 29.4612 31.8563 29.4948 31.8287C29.5938 31.7465 29.6952 31.6662 29.7929 31.5816L29.9999 31.4022V31.3908C33.6763 28.0947 35.9953 23.3116 35.9953 17.9952ZM30.7683 20.6291C26.6438 19.6933 22.0388 19.1949 17.402 19.1949C12.2068 19.1949 9.56693 19.7767 5.31947 20.89C4.13538 17.5027 3.49655 13.3015 3.62372 9.32031C3.72269 9.15656 3.82766 8.9964 3.93264 8.83624C3.98542 8.75527 4.03521 8.67369 4.08979 8.59331C4.18277 8.45595 4.28054 8.32278 4.37772 8.18842C4.4563 8.07985 4.53428 7.97067 4.61525 7.8639C4.91457 7.46921 5.23009 7.08651 5.5624 6.72001C5.60379 6.67442 5.64758 6.63063 5.68957 6.58564C5.9535 6.30072 6.22822 6.02659 6.51135 5.76026C6.59592 5.68049 6.6793 5.60011 6.76568 5.52213C6.91684 5.38596 7.071 5.2534 7.22696 5.12203C7.30494 5.05665 7.38411 4.99247 7.46389 4.92829C7.62405 4.79872 7.78601 4.66916 7.95216 4.54499C7.97856 4.52519 8.00675 4.5066 8.03374 4.4868C8.33966 4.26066 8.65458 4.04712 8.97549 3.84198C9.10506 3.7592 9.23402 3.67522 9.36599 3.59604C9.52554 3.50007 9.6881 3.40769 9.85126 3.31712C9.96283 3.25473 10.0756 3.19415 10.1884 3.13476C10.3503 3.04899 10.5129 2.96381 10.6784 2.88343C10.91 2.77126 11.1457 2.66329 11.385 2.56072C11.4486 2.53312 11.5122 2.50673 11.5764 2.48034C11.8283 2.37597 12.0827 2.27699 12.34 2.18462C12.4864 2.13183 12.6345 2.08324 12.7827 2.03466C12.9542 1.97887 13.1264 1.92549 13.3003 1.8751C13.4401 1.83431 13.5793 1.79292 13.7202 1.75573C13.785 1.73834 13.851 1.72214 13.9164 1.70595C14.1353 1.65076 14.3555 1.59917 14.578 1.55299C14.5966 1.54939 14.6134 1.54459 14.632 1.54099C14.674 1.53259 14.7178 1.52659 14.7597 1.5182C15.0351 1.46421 15.3122 1.41742 15.5899 1.37723C15.7033 1.36104 15.8185 1.34784 15.9324 1.33344C16.176 1.30345 16.4201 1.27886 16.6654 1.25966L16.7638 1.25187C16.834 1.24647 16.903 1.23987 16.9732 1.23567C17.6522 1.19368 18.3474 1.19368 19.027 1.23567C19.1134 1.24107 19.1992 1.24887 19.2855 1.25547L19.3353 1.25906C19.5861 1.27886 19.835 1.30345 20.0947 1.33644C20.1025 1.33764 20.1109 1.33884 20.1187 1.33944C20.2093 1.35084 20.2999 1.36104 20.3892 1.37363C20.655 1.41142 20.9255 1.45881 21.2026 1.511C21.322 1.53439 21.4408 1.55838 21.5595 1.58418C21.8043 1.63756 22.0484 1.69455 22.2895 1.75813C22.4575 1.80252 22.6231 1.85111 22.7886 1.90029C22.9056 1.93508 23.0291 1.97347 23.1557 2.01426C23.3285 2.07005 23.5006 2.12763 23.671 2.18882C23.9091 2.27459 24.1448 2.36697 24.3782 2.46294C24.4736 2.50193 24.5683 2.54212 24.6625 2.58291C24.8844 2.67889 25.104 2.77846 25.3193 2.88283C25.7716 3.10237 26.2119 3.34231 26.6402 3.60084C26.7619 3.67402 26.8813 3.752 27.0013 3.82878C27.2964 4.01653 27.5855 4.21268 27.8675 4.41842C27.9298 4.46401 27.9946 4.5072 28.0558 4.55339C28.2202 4.67635 28.3797 4.80472 28.5393 4.93368C28.6173 4.99667 28.6952 5.06025 28.772 5.12443C28.9268 5.2546 29.0803 5.38596 29.2303 5.52153C29.3281 5.6097 29.4234 5.70148 29.5194 5.79206C29.748 6.008 29.9705 6.23054 30.187 6.45908C30.2752 6.55205 30.3646 6.64323 30.4516 6.7392C30.5823 6.88316 30.7083 7.03133 30.8337 7.18009C30.9014 7.26046 30.9686 7.34024 31.034 7.42122C31.1546 7.56938 31.2727 7.71934 31.3879 7.8717C31.4653 7.97427 31.5397 8.07805 31.6153 8.18242C31.7148 8.32038 31.8156 8.45714 31.911 8.59811C31.9614 8.67249 32.0075 8.74867 32.0567 8.82365C32.1647 8.9886 32.2727 9.15416 32.3753 9.32271C32.5006 13.1989 31.8954 17.2874 30.7683 20.6291ZM28.718 30.9158C28.4301 31.1545 28.1326 31.3818 27.8297 31.6014C27.7373 31.6686 27.6443 31.7351 27.5501 31.7999C27.2418 32.0141 26.9275 32.2186 26.6072 32.4106C26.4608 32.4981 26.3121 32.5833 26.1627 32.6667C26.0817 32.7117 26.0014 32.7573 25.9204 32.8011C25.7578 32.888 25.5935 32.972 25.4279 33.0536C25.3451 33.095 25.2623 33.1358 25.179 33.1754C25.0098 33.2557 24.8383 33.3331 24.6655 33.4075C24.5845 33.4429 24.503 33.4777 24.4214 33.5119C24.248 33.5838 24.0729 33.6528 23.8965 33.7194C23.8089 33.7524 23.7214 33.7842 23.6338 33.8154C23.4658 33.8754 23.2967 33.9329 23.1263 33.9875C23.0195 34.0217 22.9122 34.0547 22.8048 34.0865C22.6548 34.1315 22.5049 34.1741 22.3531 34.2149C22.211 34.2527 22.0688 34.2881 21.9254 34.3223C21.8091 34.3504 21.6921 34.378 21.5745 34.4032C21.3826 34.4446 21.1894 34.4824 20.9957 34.5172C20.9249 34.5298 20.8547 34.5436 20.7833 34.555C20.538 34.5958 20.2915 34.6312 20.0431 34.6612C20.0263 34.663 20.0089 34.6654 19.9922 34.6678L20.3898 33.1064C20.442 33.023 20.4948 32.9396 20.5494 32.8574C20.5992 32.7819 20.6484 32.7063 20.6994 32.6319C20.7809 32.5149 20.8655 32.401 20.9507 32.287C21.0017 32.2186 21.0521 32.149 21.1043 32.0818C21.1984 31.9619 21.2962 31.8461 21.3946 31.7303C21.4426 31.674 21.4888 31.6152 21.5379 31.56C21.6639 31.4178 21.7935 31.2799 21.9254 31.1443C21.95 31.1191 21.9734 31.0915 21.9986 31.0663C22.1576 30.9062 22.3207 30.7508 22.4887 30.6002C22.5301 30.563 22.5739 30.5283 22.6153 30.4923C22.7418 30.3819 22.8696 30.2721 23.0004 30.1672C23.0639 30.1162 23.1293 30.0688 23.1941 30.0196C23.3069 29.9332 23.4196 29.8468 23.5354 29.7647C23.6092 29.7125 23.6848 29.6627 23.7597 29.6123C23.8695 29.5379 23.9799 29.4641 24.0921 29.3934C24.1724 29.343 24.2546 29.295 24.3362 29.2464C24.446 29.181 24.5563 29.1168 24.6679 29.0551C24.7537 29.0077 24.8401 28.9627 24.927 28.9177C25.0386 28.8601 25.1508 28.8037 25.2635 28.7491C25.3529 28.7065 25.4429 28.6652 25.5329 28.6244C25.6468 28.5734 25.7614 28.5242 25.8766 28.4774C25.969 28.4396 26.0613 28.4024 26.1549 28.367C26.2713 28.3226 26.3888 28.2813 26.507 28.2405C26.6012 28.2081 26.6954 28.1757 26.7907 28.1457C26.9107 28.1079 27.0325 28.0731 27.1536 28.0395C27.249 28.0131 27.3438 27.9855 27.4398 27.9609C27.5645 27.9298 27.6905 27.9022 27.8159 27.8752C27.9106 27.8548 28.0054 27.832 28.1008 27.814C28.2328 27.7888 28.3659 27.769 28.4991 27.748C28.5903 27.7336 28.6808 27.7168 28.772 27.7048C28.781 27.7036 28.79 27.703 28.799 27.7018V30.8444C28.7714 30.8684 28.7456 30.893 28.718 30.9158ZM16.0032 34.6678C15.7423 34.6372 15.4838 34.6 15.2264 34.5574C15.161 34.5466 15.0957 34.534 15.0303 34.522C14.8299 34.4866 14.6308 34.4476 14.4322 34.405C14.3177 34.3798 14.2037 34.3528 14.0897 34.3258C13.9428 34.2911 13.7964 34.2551 13.6512 34.2161C13.5013 34.1759 13.3525 34.1333 13.205 34.0889C13.0952 34.0565 12.9854 34.0229 12.8763 33.9881C12.7077 33.9342 12.5397 33.8772 12.3736 33.8178C12.2836 33.786 12.1936 33.753 12.1043 33.7194C11.9297 33.654 11.7563 33.5856 11.5848 33.5143C11.5008 33.4795 11.4168 33.4435 11.3329 33.4069C11.1631 33.3331 10.994 33.2569 10.8272 33.1778C10.7408 33.137 10.655 33.0938 10.5687 33.0512C10.4055 32.9702 10.243 32.888 10.0828 32.8023C9.99942 32.7573 9.91724 32.7105 9.83446 32.6643C9.6857 32.5815 9.53814 32.4969 9.39238 32.41C9.07566 32.2204 8.76495 32.0183 8.45903 31.8065C8.36305 31.7399 8.26828 31.6722 8.1741 31.6038C7.87178 31.3848 7.57486 31.1581 7.28694 30.9194C7.26235 30.899 7.23835 30.8768 7.21376 30.8558V27.703C7.22276 27.7042 7.23176 27.7048 7.24015 27.706C7.33793 27.7186 7.4339 27.7366 7.53108 27.7522C7.65944 27.7726 7.78841 27.7912 7.91557 27.8158C8.01515 27.835 8.11352 27.8584 8.21249 27.88C8.33546 27.907 8.45843 27.9334 8.5802 27.9639C8.67857 27.9891 8.77634 28.0179 8.87412 28.0449C8.99469 28.0791 9.11525 28.1127 9.23402 28.1505C9.33 28.1811 9.42537 28.2147 9.52075 28.2471C9.63891 28.2879 9.75708 28.3292 9.87405 28.3736C9.96823 28.4096 10.0612 28.448 10.1536 28.4858C10.2693 28.5332 10.3845 28.5824 10.4985 28.6334C10.5891 28.6742 10.6796 28.7167 10.769 28.7599C10.883 28.8145 10.9958 28.8709 11.1073 28.9291C11.1943 28.9747 11.2813 29.0209 11.3671 29.0688C11.4786 29.1306 11.5896 29.1948 11.6994 29.2602C11.7821 29.3094 11.8643 29.3592 11.9459 29.4108C12.0569 29.4809 12.1654 29.5535 12.274 29.6267C12.3514 29.6789 12.4282 29.7311 12.5044 29.7857C12.6141 29.8642 12.7221 29.9458 12.8289 30.0286C12.8996 30.0832 12.971 30.1366 13.0412 30.1929C13.151 30.2811 13.2577 30.3735 13.3645 30.4659C13.4281 30.5211 13.4929 30.575 13.5553 30.6314C13.6674 30.7334 13.7766 30.839 13.8846 30.9451C13.9374 30.9967 13.992 31.0465 14.0435 31.0993C14.1671 31.2253 14.2871 31.3554 14.4052 31.4874C14.4382 31.5246 14.4736 31.5594 14.506 31.5966C14.8077 31.9415 15.0909 32.3056 15.353 32.6871C15.3818 32.7297 15.4088 32.7741 15.437 32.8167C15.5269 32.9516 15.6151 33.0878 15.6997 33.2269L16.0302 34.6708C16.0212 34.6702 16.0122 34.669 16.0032 34.6678ZM16.5953 32.3914C16.5545 32.3278 16.5101 32.2672 16.4687 32.2042C16.4027 32.104 16.3367 32.0045 16.2677 31.9073C16.1904 31.7969 16.11 31.6883 16.0296 31.5804C15.9606 31.488 15.8916 31.395 15.8203 31.3051C15.7339 31.1959 15.6439 31.0897 15.5545 30.9835C15.4838 30.8996 15.4142 30.815 15.341 30.7334C15.2426 30.623 15.1406 30.5163 15.0393 30.4095C14.9697 30.3369 14.9019 30.2625 14.8311 30.1911C14.7148 30.0748 14.5948 29.9632 14.4742 29.8516C14.413 29.7953 14.3543 29.7359 14.2919 29.6807C14.1143 29.5223 13.9332 29.3694 13.7478 29.2212C13.74 29.2152 13.7334 29.2086 13.7256 29.2026C13.5319 29.0491 13.3333 28.9009 13.1318 28.7587C13.0688 28.7143 13.0034 28.6742 12.9398 28.631C12.7995 28.5356 12.6585 28.4408 12.5145 28.3508C12.4342 28.3011 12.3514 28.2543 12.2692 28.2063C12.1384 28.1289 12.0083 28.0515 11.8751 27.9789C11.7857 27.9298 11.694 27.8848 11.6034 27.838C11.4744 27.772 11.3461 27.7054 11.2147 27.6436C11.1193 27.5986 11.0227 27.5567 10.9262 27.5135C10.7966 27.4559 10.667 27.3995 10.5357 27.3461C10.4355 27.3053 10.3341 27.2675 10.2328 27.2297C10.102 27.1806 9.97123 27.1332 9.83866 27.0882C9.73549 27.0534 9.63112 27.0198 9.52674 26.9874C9.39298 26.946 9.25861 26.9064 9.12365 26.8692C9.01928 26.8404 8.91431 26.8128 8.80873 26.7865C8.67017 26.7523 8.53041 26.7205 8.39065 26.6911C8.28687 26.6689 8.1831 26.6473 8.07873 26.6275C7.93297 26.6005 7.78661 26.5771 7.63965 26.5549C7.53887 26.5399 7.4387 26.5237 7.33733 26.5111C7.29534 26.5057 7.25455 26.4979 7.21256 26.4931V25.7871C7.21256 25.6024 7.19157 25.42 7.16097 25.2389L8.14351 25.7301C8.23109 25.7727 8.32226 25.7931 8.41224 25.7931C8.63238 25.7931 8.84413 25.672 8.9497 25.4614C9.09786 25.1651 8.97789 24.8046 8.68157 24.6564L7.35532 23.9936L8.68157 23.3308C8.97789 23.1826 9.09786 22.8221 8.9497 22.5258C8.80094 22.2295 8.44103 22.1107 8.14471 22.2577L6.27441 23.1928C6.25222 23.1472 6.23002 23.101 6.20843 23.0555C6.05067 22.7243 5.89651 22.38 5.74895 22.0177C9.82846 20.95 12.403 20.3946 17.402 20.3946C21.893 20.3946 26.3553 20.8654 30.3544 21.7592C30.274 21.9643 30.1918 22.1641 30.1085 22.3596C30.0989 22.3824 30.0893 22.4058 30.0791 22.4286C30.0113 22.5858 29.9417 22.7381 29.8715 22.8887C29.8241 22.9895 29.7767 23.089 29.7282 23.1874L27.8675 22.2571C27.5711 22.1101 27.2112 22.2289 27.0625 22.5252C26.9143 22.8215 27.0343 23.182 27.3306 23.3302L28.6568 23.9936L27.3306 24.6564C27.0343 24.8046 26.9143 25.1651 27.0625 25.4614C27.168 25.672 27.3798 25.7931 27.5999 25.7931C27.6899 25.7931 27.7817 25.7727 27.8675 25.7301L28.8464 25.2407C28.8176 25.4212 28.7978 25.6048 28.799 25.7937L28.7984 26.4931C28.7558 26.4979 28.7144 26.5063 28.6718 26.5117C28.5735 26.5243 28.4763 26.5393 28.3791 26.5543C28.228 26.5771 28.0768 26.6011 27.9274 26.6293C27.8285 26.6479 27.7301 26.6689 27.6323 26.6893C27.4854 26.7205 27.3396 26.7535 27.1944 26.7895C27.0955 26.814 26.9977 26.8398 26.8993 26.8668C26.7565 26.9058 26.615 26.9472 26.474 26.991C26.3762 27.0216 26.2791 27.0528 26.1825 27.0852C26.0427 27.1326 25.9042 27.1824 25.7668 27.2345C25.672 27.2699 25.5779 27.3059 25.4837 27.3437C25.3457 27.3995 25.2102 27.4589 25.074 27.5189C24.9834 27.559 24.8922 27.5986 24.8023 27.6412C24.6649 27.706 24.5305 27.775 24.3956 27.8446C24.3104 27.8884 24.2246 27.931 24.1406 27.9765C24.0015 28.0521 23.8647 28.1331 23.7286 28.2141C23.6524 28.2591 23.575 28.3023 23.5 28.349C23.3501 28.4426 23.2031 28.541 23.0573 28.6406C22.9992 28.6802 22.9398 28.7167 22.8822 28.7575C22.6794 28.9003 22.4803 29.0485 22.2859 29.2026C22.2823 29.2056 22.2787 29.2092 22.2745 29.2122C22.0856 29.3628 21.9008 29.5193 21.7197 29.6807C21.6561 29.7371 21.5961 29.7971 21.5337 29.8552C21.415 29.9656 21.2962 30.076 21.181 30.1905C21.1085 30.2631 21.0389 30.3393 20.9681 30.4143C20.8679 30.5193 20.7677 30.6242 20.6712 30.7328C20.5974 30.8156 20.5266 30.9014 20.4546 30.9865C20.3659 31.0915 20.2771 31.1965 20.1919 31.3051C20.1199 31.3962 20.0503 31.4898 19.9802 31.5834C19.928 31.653 19.8734 31.7201 19.8224 31.7903C19.7948 31.8281 19.7702 31.8689 19.7432 31.9073C19.6742 32.0057 19.6083 32.1052 19.5417 32.2054C19.5003 32.2684 19.4559 32.329 19.4151 32.3926H16.5953V32.3914ZM1.20456 17.9952C1.20456 15.7668 1.64485 13.6404 2.43603 11.6927C2.60879 16.2677 3.66571 20.7803 5.36565 24.062C5.48682 24.2983 5.61099 24.5269 5.73755 24.7458C5.91871 25.0607 6.01468 25.4206 6.01408 25.7931V26.3936V27.5962V29.7449C3.04187 26.7133 1.20456 22.566 1.20456 17.9952ZM18.0001 34.7907C17.7601 34.7907 17.522 34.7823 17.2845 34.7727L17.0133 33.591H18.7409H19.0276L18.7265 34.7721C18.4854 34.7829 18.2436 34.7907 18.0001 34.7907ZM29.9987 27.5962V26.3936V25.7613C29.9969 25.4002 30.0917 25.0439 30.2734 24.7284C30.349 24.5964 30.421 24.4567 30.4948 24.3199C30.5079 24.3001 30.5241 24.2833 30.5355 24.2611C30.5409 24.2503 30.5397 24.2389 30.5445 24.2287C32.2961 20.9338 33.389 16.3462 33.5647 11.6921C34.3565 13.6398 34.7962 15.7662 34.7962 17.9946C34.7962 22.5588 32.9637 26.7013 29.9993 29.7311L29.9987 27.5962Z" fill="#3A3A3A"/>
</svg>
