<svg width="36" height="36" viewBox="0 0 36 36"  xmlns="http://www.w3.org/2000/svg">
<path d="M17.9997 9.8709C18.9601 9.8709 19.7417 9.08935 19.7417 8.12896C19.7417 7.37296 19.2545 6.73425 18.5804 6.49387V2.32251H17.4191V6.49387C16.7444 6.73425 16.2578 7.37296 16.2578 8.12896C16.2578 9.08935 17.0394 9.8709 17.9997 9.8709ZM17.9997 7.54832C18.3203 7.54832 18.5804 7.80845 18.5804 8.12896C18.5804 8.44948 18.3203 8.70961 17.9997 8.70961C17.6792 8.70961 17.4191 8.44948 17.4191 8.12896C17.4191 7.80845 17.6792 7.54832 17.9997 7.54832Z" />
<path d="M32.5161 18H32.3094L32.4859 16.5368C32.5057 16.3748 32.5161 16.2116 32.5161 16.0479V11.0323C32.5161 8.79155 30.6923 6.96774 28.4516 6.96774H26.0361C25.47 3.03503 22.0872 0 18 0C13.9128 0 10.53 3.03503 9.96387 6.96774H7.54839C5.30768 6.96774 3.48387 8.79155 3.48387 11.0323V16.0479C3.48387 16.2116 3.49432 16.3754 3.51348 16.5368L3.69058 18H0V24.9677H4.53542L5.4389 32.4244C5.68626 34.463 7.42064 36 9.47381 36H26.5256C28.5788 36 30.3132 34.463 30.5605 32.4244L30.7608 30.7742H32.5161C34.4375 30.7742 36 29.2117 36 27.2903V21.4839C36 19.5625 34.4375 18 32.5161 18ZM18 1.16129C21.8421 1.16129 24.9677 4.2869 24.9677 8.12903C24.9677 11.9712 21.8421 15.0968 18 15.0968C14.1579 15.0968 11.0323 11.9712 11.0323 8.12903C11.0323 4.2869 14.1579 1.16129 18 1.16129ZM4.64516 11.0323C4.64516 9.43142 5.94755 8.12903 7.54839 8.12903H9.87097C9.87097 12.6116 13.5174 16.2581 18 16.2581C22.4826 16.2581 26.129 12.6116 26.129 8.12903H28.4516C30.0525 8.12903 31.3548 9.43142 31.3548 11.0323V16.0479C31.3548 16.164 31.3479 16.2807 31.3334 16.3974L31.1394 18H4.86058L4.66606 16.3963C4.65213 16.2807 4.64516 16.164 4.64516 16.0479V11.0323ZM29.4074 32.285C29.2314 33.7407 27.9923 34.8387 26.5262 34.8387H9.47381C8.00768 34.8387 6.76858 33.7407 6.59206 32.285L5.70542 24.9677H30.2946L29.4074 32.285ZM32.5161 29.6129H30.9019L31.4652 24.9677H32.5161C33.797 24.9677 34.8387 26.0094 34.8387 27.2903C34.8387 28.5712 33.797 29.6129 32.5161 29.6129ZM34.8387 24.6954C34.2215 24.1432 33.4074 23.8065 32.5161 23.8065H1.16129V19.1613H2.32258V20.3226H3.48387V19.1613H4.64516V20.3226H5.80645V19.1613H6.96774V20.3226H8.12903V19.1613H9.29032V20.3226H10.4516V19.1613H11.6129V20.3226H12.7742V19.1613H13.9355V20.3226H15.0968V19.1613H16.2581V20.3226H17.4194V19.1613H18.5806V20.3226H19.7419V19.1613H20.9032V20.3226H22.0645V19.1613H23.2258V20.3226H24.3871V19.1613H25.5484V20.3226H26.7097V19.1613H27.871V20.3226H29.0323V19.1613H30.1935V20.3226H31.3548V19.1613H32.5161V20.9032H33.6774V19.4841C34.3684 19.8871 34.8387 20.628 34.8387 21.4839V24.6954Z"/>
</svg>
