<svg width="36" height="36" viewBox="0 0 36 36" fill="none" xmlns="http://www.w3.org/2000/svg">
<path d="M8.86554 16.6799C8.97451 17.7943 9.2489 18.9168 9.62401 19.9053C10.9218 23.3248 13.3236 25.4282 16.0489 25.532C16.1585 25.5362 16.2732 25.539 16.3921 25.539C16.8884 25.539 17.4545 25.4896 18.0001 25.2824C18.6766 25.5392 19.3844 25.5537 19.9518 25.532C22.6767 25.4282 25.0783 23.325 26.3762 19.9058C27.4136 17.1731 27.68 13.418 25.8135 11.6312C24.2891 10.172 21.8715 9.86602 19.7976 10.8707C19.5201 11.005 19.2787 11.1123 19.0649 11.1951C19.3083 10.3423 19.678 9.53655 20.1537 8.80191C22.0265 9.50173 24.4225 9.0489 26.357 7.57264C28.5411 5.90521 29.6214 3.32552 29.0449 1.15338C28.9888 0.942045 28.8511 0.761683 28.662 0.651706C26.7186 -0.477206 23.9455 -0.115657 21.7613 1.55159C19.7055 3.1205 18.6277 5.49765 18.9882 7.5829C18.6079 8.12546 18.2775 8.70412 18.0036 9.31101C17.3356 7.81981 16.3223 6.49175 15.0249 5.43506C14.6717 5.14756 14.1523 5.20035 13.8644 5.55374C13.5768 5.90695 13.6299 6.42641 13.9831 6.71418C15.4191 7.88369 16.4425 9.44591 16.9373 11.1956C16.7231 11.1128 16.4811 11.0053 16.203 10.8706C14.1292 9.86639 11.7115 10.1719 10.187 11.6311C9.02601 12.7425 8.69022 14.6155 8.85188 16.5303C8.85198 16.5803 8.85656 16.6303 8.86554 16.6799ZM22.7622 2.86297C24.2746 1.70868 26.1731 1.34612 27.5192 1.92093C27.7186 3.37079 26.8682 5.10696 25.356 6.26135C24.0807 7.23474 22.5302 7.64513 21.2685 7.40511C22.2637 6.38425 23.5034 5.5959 24.899 5.14499C25.3324 5.00496 25.5703 4.53994 25.4302 4.10645C25.2902 3.67304 24.8251 3.43485 24.3917 3.57517C23.0352 4.01351 21.8035 4.72048 20.7536 5.62825C21.0685 4.61949 21.774 3.61714 22.7622 2.86297ZM13.4897 22.8087C12.5455 22.0212 11.739 20.8288 11.1663 19.32C10.8689 18.5364 10.6672 17.7308 10.5599 16.959C11.0134 16.7297 11.5143 16.6101 12.0317 16.6101C13.8349 16.6101 15.302 18.0771 15.302 19.8803C15.302 21.1325 14.5887 22.2618 13.4897 22.8087ZM11.3279 12.8229C12.1843 12.0031 13.8016 11.5407 15.4842 12.3554C16.4061 12.8018 17.1911 13.0937 18.0002 13.0679C18.8132 13.0933 19.5948 12.8017 20.5167 12.3553C22.199 11.5407 23.8163 12.003 24.6729 12.8228C25.7536 13.8574 25.8243 16.7115 24.8341 19.3204C23.779 22.0999 21.9304 23.8057 19.8892 23.8835C19.1954 23.9099 18.7348 23.839 18.3973 23.6536C18.1502 23.5178 17.8506 23.5179 17.6032 23.6537C17.2658 23.839 16.8051 23.9096 16.1119 23.8835C15.774 23.8706 15.4417 23.8132 15.1172 23.7137C16.2542 22.7975 16.9519 21.3989 16.9519 19.8802C16.9519 17.1674 14.7448 14.9603 12.0319 14.9603C11.499 14.9603 10.9775 15.0448 10.4824 15.209C10.5464 14.1621 10.83 13.2994 11.3279 12.8229ZM35.1995 21.941C35.0604 21.6597 34.7738 21.4815 34.46 21.4815H29.0979C28.6423 21.4815 28.2731 21.8508 28.2731 22.3063C28.2731 22.7619 28.6423 23.1312 29.0979 23.1312H33.8185C33.7501 23.8227 32.5998 24.9248 29.5308 25.8587C26.4625 26.7924 22.3675 27.3066 18.0002 27.3066C13.6331 27.3066 9.53823 26.7925 6.46979 25.8587C3.40088 24.9249 2.25062 23.8227 2.18225 23.1312H6.90282C7.3584 23.1312 7.72765 22.7619 7.72765 22.3063C7.72765 21.8508 7.3584 21.4815 6.90282 21.4815H1.54072C1.22719 21.4815 0.940794 21.6592 0.801673 21.9401C0.620944 22.3049 0.529297 22.6836 0.529297 23.066C0.529297 24.8385 2.41751 26.3498 5.98955 27.4368C9.013 28.3569 12.9584 28.8887 17.1754 28.9502V30.5357H9.67735C7.69273 30.5357 6.07809 32.1503 6.07809 34.1349V35.1752C6.07809 35.6308 6.44733 36 6.90291 36H29.0981C29.5536 36 29.9229 35.6308 29.9229 35.1752V34.135C29.9229 32.1504 28.3083 30.5358 26.3236 30.5358H18.8252V28.9503C23.0424 28.8888 26.9878 28.357 30.0113 27.4369C33.5836 26.3499 35.4717 24.8385 35.4717 23.0661C35.4714 22.6847 35.3799 22.3062 35.1995 21.941ZM26.3234 32.1854C27.3985 32.1854 28.2731 33.06 28.2731 34.1349V34.3504H7.72756V34.1349C7.72756 33.06 8.60215 32.1854 9.67717 32.1854H26.3234Z" fill="#3A3A3A"/>
</svg>
