<svg width="76" height="23" viewBox="0 0 76 23" fill="none" xmlns="http://www.w3.org/2000/svg">
<path d="M40.0768 8.30425L40.9167 7.465C40.9481 7.43361 40.999 7.43361 41.0304 7.465L41.8703 8.30425C41.9017 8.33564 41.9017 8.38653 41.8703 8.41792L41.0304 9.25717C40.999 9.28856 40.9481 9.28856 40.9167 9.25717L40.0768 8.41792C40.0453 8.38653 40.0453 8.33564 40.0768 8.30425Z" fill="#B0BF24" stroke="#B0BF24"/>
<path d="M46.6861 8.04131L47.2553 7.47263C47.2867 7.44124 47.3376 7.44124 47.369 7.47263L47.9381 8.04131C47.9695 8.0727 47.9695 8.12359 47.9381 8.15498L47.369 8.72366C47.3376 8.75505 47.2867 8.75505 47.2553 8.72366L46.6861 8.15498C46.6547 8.12359 46.6547 8.0727 46.6861 8.04131Z" fill="#B0BF24" stroke="#B0BF24"/>
<path d="M48.8305 8.04131L49.3997 7.47263C49.4311 7.44124 49.482 7.44124 49.5134 7.47263L50.0826 8.04131C50.114 8.0727 50.114 8.12359 50.0826 8.15498L49.5134 8.72366C49.482 8.75505 49.4311 8.75505 49.3997 8.72366L48.8305 8.15498C48.7991 8.12359 48.7991 8.0727 48.8305 8.04131Z" fill="#B0BF24" stroke="#B0BF24"/>
<mask id="path-4-inside-1_1674_27041" fill="white">
<path d="M39.7465 0.893799L50.4278 0.893799C50.6748 0.893799 50.875 0.693722 50.875 0.446916C50.875 0.200109 50.6748 3.24249e-05 50.4278 3.24249e-05L39.7465 3.24249e-05C39.4995 3.24249e-05 39.2992 0.200109 39.2992 0.446916C39.2992 0.693722 39.4995 0.893799 39.7465 0.893799Z"/>
</mask>
<path d="M39.7465 0.893799L50.4278 0.893799C50.6748 0.893799 50.875 0.693722 50.875 0.446916C50.875 0.200109 50.6748 3.24249e-05 50.4278 3.24249e-05L39.7465 3.24249e-05C39.4995 3.24249e-05 39.2992 0.200109 39.2992 0.446916C39.2992 0.693722 39.4995 0.893799 39.7465 0.893799Z" fill="#B0BF24"/>
<path d="M50.4278 -0.106201L39.7465 -0.106201V1.8938L50.4278 1.8938V-0.106201ZM39.7465 -0.106201C40.051 -0.106201 40.2992 0.140706 40.2992 0.446916L38.2992 0.446916C38.2992 1.24674 38.9479 1.8938 39.7465 1.8938V-0.106201ZM40.2992 0.446916C40.2992 0.753125 40.051 1.00003 39.7465 1.00003V-0.999968C38.9479 -0.999968 38.2992 -0.352907 38.2992 0.446916L40.2992 0.446916ZM39.7465 1.00003L50.4278 1.00003V-0.999968L39.7465 -0.999968V1.00003ZM50.4278 1.00003C50.1232 1.00003 49.875 0.753126 49.875 0.446916L51.875 0.446916C51.875 -0.352908 51.2263 -0.999968 50.4278 -0.999968V1.00003ZM49.875 0.446916C49.875 0.140705 50.1232 -0.106201 50.4278 -0.106201V1.8938C51.2263 1.8938 51.875 1.24674 51.875 0.446916L49.875 0.446916Z" fill="#B0BF24" mask="url(#path-4-inside-1_1674_27041)"/>
<path d="M40.5665 16.807L40.5675 16.7913V16.7756V11.7832C40.5675 11.6789 40.609 11.5787 40.6829 11.5049C40.7569 11.431 40.8573 11.3894 40.962 11.3894C41.0667 11.3894 41.1671 11.431 41.2411 11.5049C41.315 11.5787 41.3565 11.6789 41.3565 11.7832V16.7732V16.9177C41.3289 17.4805 41.1455 18.0257 40.8253 18.4919C40.4776 18.9981 39.9848 19.3874 39.4116 19.6088L39.4116 19.6088L39.4079 19.6103C39.3472 19.6343 39.2815 19.6431 39.2166 19.636C39.1516 19.6289 39.0894 19.606 39.0353 19.5695C38.9813 19.5329 38.937 19.4837 38.9064 19.4262C38.8758 19.3689 38.8597 19.3051 38.8594 19.2403V19.2116C38.8614 19.1302 38.8871 19.051 38.9336 18.9837C38.9807 18.9156 39.0469 18.8629 39.124 18.8324L39.124 18.8325L39.1349 18.8279C39.5376 18.657 39.8848 18.3775 40.1377 18.0206C40.3906 17.6637 40.5391 17.2435 40.5665 16.807Z" fill="#B0BF24" stroke="#B0BF24"/>
<path d="M48.3713 11.427L48.3713 11.427L48.3747 11.4284C48.9393 11.6471 49.4257 12.0289 49.7719 12.525C50.1182 13.0211 50.3086 13.609 50.3189 14.2137L50.3212 14.3504V16.6936H46.9991C46.1911 16.6936 45.4164 16.373 44.8451 15.8023C44.274 15.2316 43.9531 14.4576 43.953 13.6507C43.953 13.6507 43.953 13.6506 43.953 13.6506V7.81543C43.9562 7.71398 43.9985 7.61761 44.0713 7.54648C44.145 7.47432 44.2442 7.43384 44.3476 7.43384C44.451 7.43384 44.5503 7.47432 44.624 7.54648C44.6968 7.61766 44.7391 7.71405 44.7423 7.81544V12.8023L44.7423 13.5399L44.7423 13.5403C44.7429 14.1656 44.9918 14.765 45.4344 15.2068L45.7877 14.8529L45.4344 15.2068C45.877 15.6486 46.4769 15.8966 47.1023 15.8965C47.1024 15.8965 47.1024 15.8965 47.1024 15.8965H49.0311H49.5311V15.3965V14.2642V14.2487L49.5302 14.2333C49.5031 13.7963 49.3547 13.3755 49.1018 13.018C48.8488 12.6606 48.5013 12.3806 48.0981 12.2095L48.0982 12.2094L48.0873 12.2051C48.0102 12.1745 47.9439 12.1217 47.8968 12.0536C47.8504 11.9864 47.8246 11.9072 47.8226 11.8257V11.797C47.8229 11.7321 47.839 11.6683 47.8695 11.611C47.9002 11.5535 47.9445 11.5043 47.9986 11.4677C48.0526 11.4311 48.1149 11.4083 48.1798 11.4012C48.2448 11.3941 48.3105 11.403 48.3713 11.427Z" fill="#B0BF24" stroke="#B0BF24"/>
<path d="M37.0864 5.32727V8.00069L37.0815 8.16578C37.058 8.94533 36.7355 9.68611 36.1807 10.2349C35.627 10.7825 34.8841 11.0971 34.1051 11.1138H23.2659H22.5277H22.5273C21.9018 11.1143 21.3021 11.363 20.86 11.8052L21.2136 12.1587L20.86 11.8052C20.4179 12.2475 20.1695 12.8471 20.1696 13.4724C20.1696 13.4724 20.1696 13.4725 20.1696 13.4725V15.3996V15.8996H20.6696H35.0694H35.0848L35.1001 15.8987C35.5373 15.8718 35.9584 15.7237 36.3161 15.4709C36.6738 15.2181 36.9539 14.8707 37.125 14.4675L37.1251 14.4675L37.1293 14.457C37.1599 14.3801 37.2126 14.3139 37.2808 14.2667C37.3481 14.2203 37.4276 14.1944 37.5094 14.1924H37.5383C37.6034 14.1928 37.6674 14.209 37.7248 14.2396L37.9599 13.7983L37.7248 14.2396C37.7825 14.2703 37.8318 14.3146 37.8683 14.3686C37.9049 14.4225 37.9277 14.4846 37.9348 14.5494C37.9419 14.6142 37.9331 14.6797 37.9091 14.7402L37.9078 14.7436C37.6897 15.3064 37.3089 15.7919 36.814 16.1381C36.319 16.4844 35.7321 16.6758 35.128 16.6881L34.8954 16.6928H19.3711V13.3732C19.3711 12.5662 19.6919 11.7921 20.2631 11.2214C20.8343 10.6506 21.6092 10.3298 22.4172 10.3298H34.0862H34.1077L34.1291 10.328C34.6961 10.2791 35.2267 10.0282 35.624 9.62089C35.9095 9.32818 36.1126 8.96873 36.217 8.57885H36.2971V8.07885V5.15542V4.65542H36.2163C36.1443 4.38918 36.0258 4.13643 35.865 3.90929C35.612 3.55188 35.2644 3.27202 34.8612 3.10107L34.8612 3.10096L34.8507 3.09676C34.7735 3.06609 34.7072 3.01331 34.66 2.94511C34.6136 2.87784 34.5878 2.79852 34.5858 2.7169V2.68837C34.5861 2.62345 34.6022 2.55962 34.6327 2.50239C34.6634 2.44488 34.7076 2.39571 34.7617 2.35915C34.8157 2.32258 34.8779 2.29972 34.9429 2.2926C35.0078 2.28549 35.0735 2.29432 35.1343 2.31834L35.1343 2.31836L35.1379 2.31975C35.6236 2.50751 36.0531 2.81631 36.3857 3.21674L36.7464 3.65116L37.134 3.24048C37.4133 2.94446 37.7495 2.70759 38.1224 2.544C38.4943 2.38082 38.8953 2.29388 39.3015 2.28833H49.9791C50.084 2.28833 50.1844 2.32995 50.2585 2.40392C50.3324 2.47779 50.3739 2.57791 50.374 2.68228C50.3739 2.78668 50.3324 2.88685 50.2584 2.96075C50.1844 3.03468 50.0839 3.07627 49.9791 3.07627H39.2982H39.2768L39.2555 3.0781C38.6883 3.12676 38.1576 3.37762 37.7601 3.78497C37.4744 4.07773 37.2713 4.43728 37.1669 4.82727H37.0864V5.32727Z" fill="#B0BF24" stroke="#B0BF24"/>
<path d="M13.3689 19.5419C13.3136 19.5417 13.2594 19.5267 13.212 19.4984C13.1645 19.47 13.1256 19.4294 13.0994 19.3808C13.0731 19.3322 13.0605 19.2774 13.0628 19.2222C13.0651 19.167 13.0823 19.1135 13.1126 19.0673C13.3891 18.7123 13.7471 18.429 14.1563 18.2415C14.5655 18.054 15.014 17.9677 15.4636 17.99C15.5451 17.99 15.6232 18.0223 15.6809 18.0799C15.7385 18.1375 15.7708 18.2156 15.7708 18.297C15.7708 18.3784 15.7385 18.4564 15.6809 18.514C15.6232 18.5716 15.5451 18.6039 15.4636 18.6039C15.1154 18.5826 14.7671 18.6443 14.4474 18.7839C14.1277 18.9235 13.8457 19.1371 13.6248 19.4069C13.5964 19.4486 13.5583 19.4826 13.5136 19.5061C13.469 19.5297 13.4193 19.5419 13.3689 19.5419Z" fill="#F69427"/>
<path d="M14.9597 19.7782C14.8913 19.7786 14.8247 19.7558 14.7708 19.7136C14.611 19.5579 14.4074 19.4548 14.1872 19.4181C13.9671 19.3815 13.741 19.413 13.5392 19.5084C13.4699 19.5505 13.3868 19.5636 13.3079 19.545C13.2289 19.5263 13.1605 19.4774 13.1173 19.4088C13.0744 19.3407 13.0601 19.2584 13.0776 19.1798C13.0952 19.1012 13.1431 19.0327 13.211 18.9892C13.5189 18.823 13.8711 18.7568 14.2185 18.8C14.5659 18.8432 14.8911 18.9935 15.149 19.2302C15.1992 19.2696 15.236 19.3237 15.2541 19.3849C15.2722 19.4462 15.2707 19.5115 15.2499 19.5719C15.2291 19.6323 15.1899 19.6847 15.1379 19.7218C15.0859 19.7589 15.0236 19.7789 14.9597 19.779V19.7782Z" fill="#F69427"/>
<path d="M13.0831 11.0084C12.9184 11.0055 12.7615 10.9384 12.6457 10.8214C12.5299 10.7045 12.4645 10.5469 12.4634 10.3824C12.4623 10.2178 12.5256 10.0594 12.6398 9.94089C12.754 9.82238 12.9101 9.75318 13.0746 9.74808C13.1811 9.74808 13.2892 9.73965 13.3961 9.7276C14.2334 9.63176 14.9984 9.20748 15.5226 8.54809C16.0469 7.8887 16.2875 7.04822 16.1916 6.21155C16.0957 5.37487 15.6711 4.61053 15.0112 4.08668C14.3513 3.56283 13.5101 3.32237 12.6728 3.41821C12.1942 3.47181 11.7344 3.6346 11.3287 3.89401C11.1877 3.98383 11.0167 4.01399 10.8534 3.97784C10.6901 3.9417 10.5479 3.84222 10.458 3.70128C10.3681 3.56034 10.3379 3.3895 10.3741 3.22633C10.4102 3.06316 10.5098 2.92102 10.6508 2.8312C11.2859 2.4275 12.0132 2.19175 12.7644 2.14611C13.5157 2.10048 14.2663 2.24645 14.9456 2.57032C15.6249 2.89419 16.2106 3.38531 16.6477 3.99754C17.0849 4.60977 17.359 5.323 17.4445 6.07021C17.5767 7.23866 17.2398 8.41183 16.5075 9.33233C15.7752 10.2528 14.7074 10.8455 13.5384 10.9803C13.3905 10.9972 13.2406 11.0068 13.0924 11.0088L13.0831 11.0084Z" fill="#F69427"/>
<path d="M7.20993 17.7014C7.18984 17.7014 7.16974 17.7014 7.14965 17.6985C7.03624 17.688 6.92779 17.6469 6.83582 17.5798C6.74386 17.5126 6.67179 17.4219 6.62726 17.3171L5.53554 14.7474C5.38075 14.8383 5.21957 14.9178 5.05332 14.9855C4.56064 15.1859 4.03029 15.2768 3.49895 15.2521C2.96761 15.2273 2.44799 15.0875 1.97612 14.8421C1.50424 14.5968 1.09135 14.252 0.766081 13.8314C0.440815 13.4109 0.210951 12.9247 0.0923682 12.4065C-0.0262148 11.8884 -0.0306794 11.3507 0.0793207 10.8307C0.189321 10.3107 0.411172 9.82078 0.72944 9.39491C1.04771 8.96904 1.45479 8.6174 1.92255 8.36434C2.39031 8.11127 2.90751 7.96284 3.43837 7.92932C3.60335 7.92209 3.7646 7.97978 3.88748 8.09002C4.01036 8.20026 4.08508 8.35425 4.0956 8.51893C4.10612 8.6836 4.05164 8.84584 3.94379 8.9708C3.83593 9.09575 3.68332 9.17347 3.51876 9.18726C3.13063 9.21155 2.75414 9.32939 2.4215 9.53069C2.08885 9.73199 1.8099 10.0108 1.60853 10.3432C1.40715 10.6756 1.28935 11.0519 1.26512 11.4397C1.2409 11.8275 1.31102 12.2155 1.46947 12.5703C1.62792 12.9252 1.87 13.2365 2.17502 13.4776C2.48004 13.7186 2.83893 13.8823 3.22102 13.9546C3.60312 14.027 3.99703 14.0058 4.36916 13.8929C4.74128 13.78 5.08056 13.5788 5.35792 13.3064C5.43122 13.2343 5.521 13.1813 5.61951 13.1518C5.71802 13.1224 5.82223 13.1174 5.92309 13.1374C6.02394 13.1574 6.11841 13.2017 6.19821 13.2665C6.27801 13.3313 6.34075 13.4146 6.38098 13.5092L7.38995 15.8857C8.62998 14.6137 11.5199 12.4351 16.2248 13.2803C16.3894 13.3098 16.5355 13.4035 16.631 13.5407C16.7265 13.6779 16.7635 13.8474 16.7339 14.0118C16.7044 14.1763 16.6106 14.3223 16.4733 14.4177C16.336 14.5131 16.1664 14.5501 16.0019 14.5206C10.4358 13.5208 7.7588 17.3858 7.73228 17.4251C7.67437 17.5103 7.59652 17.5799 7.50547 17.6281C7.41441 17.6762 7.31295 17.7014 7.20993 17.7014Z" fill="#F69427"/>
<path d="M3.49033 9.19888C3.35203 9.19879 3.2176 9.15328 3.10774 9.06933C2.99788 8.98538 2.91867 8.86767 2.88235 8.73433C2.57441 7.59985 2.66526 6.39416 3.13972 5.31854C3.61418 4.24293 4.44356 3.36249 5.48935 2.82424C6.53514 2.28598 7.73403 2.12248 8.88592 2.36103C10.0378 2.59958 11.073 3.22575 11.8185 4.13499C11.871 4.19902 11.9103 4.27276 11.9342 4.35198C11.9582 4.4312 11.9663 4.51435 11.958 4.59669C11.9498 4.67904 11.9254 4.75895 11.8863 4.83188C11.8471 4.90481 11.794 4.96932 11.7299 5.02173C11.6659 5.07414 11.5921 5.11343 11.5128 5.13734C11.4335 5.16126 11.3503 5.16934 11.2679 5.16111C11.1855 5.15289 11.1055 5.12853 11.0325 5.08943C10.9595 5.05032 10.895 4.99723 10.8425 4.9332C10.2799 4.2476 9.49899 3.7755 8.63012 3.59562C7.76126 3.41575 6.85689 3.53898 6.06796 3.94477C5.27902 4.35056 4.65319 5.01437 4.29482 5.82547C3.93645 6.63658 3.86725 7.54593 4.09871 8.40187C4.12406 8.49533 4.12753 8.59337 4.10887 8.68838C4.0902 8.7834 4.04987 8.87285 3.99105 8.9498C3.93222 9.02675 3.85646 9.08913 3.76963 9.13211C3.6828 9.1751 3.58724 9.19753 3.49033 9.19767V9.19888Z" fill="#F69427"/>
<path d="M11.0169 17.6852C10.7731 17.6355 10.5198 17.6624 10.2919 17.7622C10.064 17.862 9.87261 18.0298 9.74394 18.2426C9.61528 18.4554 9.55571 18.7028 9.57335 18.9508C9.59098 19.1988 9.68496 19.4353 9.84244 19.6278C9.99992 19.8203 10.2131 19.9594 10.4529 20.026C10.6926 20.0926 10.9471 20.0834 11.1814 19.9997C11.4157 19.9161 11.6184 19.762 11.7616 19.5587C11.9048 19.3553 11.9815 19.1127 11.9813 18.8641C12.0067 18.5806 11.9201 18.2984 11.7398 18.078C11.5595 17.8577 11.3 17.7166 11.0169 17.6852ZM10.8594 19.1825C10.784 19.1903 10.7079 19.1752 10.6413 19.139C10.5747 19.1028 10.5207 19.0473 10.4863 18.9798C10.4519 18.9123 10.4388 18.836 10.4487 18.7609C10.4586 18.6858 10.4911 18.6154 10.5418 18.5592C10.5925 18.5029 10.6592 18.4633 10.7329 18.4456C10.8066 18.4279 10.884 18.433 10.9548 18.4602C11.0255 18.4873 11.0864 18.5353 11.1293 18.5977C11.1723 18.6601 11.1953 18.7341 11.1953 18.8099C11.1977 18.8564 11.191 18.9029 11.1754 18.9468C11.1598 18.9907 11.1358 19.0311 11.1046 19.0657C11.0734 19.1003 11.0356 19.1284 10.9936 19.1485C10.9515 19.1685 10.9059 19.1801 10.8594 19.1825Z" fill="#F69427"/>
<path d="M57.8189 12.1688C58.0757 12.0876 58.3117 11.9452 58.5049 11.7506L58.1502 11.3982L58.5049 11.7506C58.8189 11.4345 58.9944 11.0068 58.9931 10.5615M57.8189 12.1688L58.9931 10.5622V10.5615M57.8189 12.1688C58.1606 12.1189 58.5079 12.1014 58.8561 12.1174C59.8402 12.1626 60.7924 12.4741 61.6118 13.017C61.9162 12.9988 62.2151 12.9242 62.493 12.7966C62.8159 12.6484 63.1029 12.4321 63.3342 12.1626L63.6824 11.757L64.0639 12.1315C64.6174 12.6749 65.3585 12.9855 66.1344 12.9993H72.174C72.982 12.9993 73.7568 12.6786 74.328 12.1078C74.8992 11.537 75.2201 10.7629 75.2201 9.95593V6.63794H70.311C69.6966 6.63862 69.0967 6.82489 68.5902 7.17226C68.0836 7.51967 67.6939 8.01197 67.4724 8.5845L67.471 8.58812C67.4471 8.64864 67.4382 8.71414 67.4454 8.77897C67.4525 8.84375 67.4753 8.90581 67.5118 8.95976C67.5484 9.01379 67.5977 9.05806 67.6553 9.08876C67.7127 9.11935 67.7768 9.13555 67.8419 9.13593H67.8702C67.9522 9.13389 68.0318 9.10801 68.0992 9.06151C68.1675 9.01436 68.2203 8.9481 68.251 8.8711L68.2551 8.86074L68.2552 8.86079C68.4263 8.45767 68.7065 8.11025 69.0641 7.85747L69.3527 8.26579L69.0641 7.85747C69.4218 7.6047 69.8428 7.45655 70.28 7.42964L70.2953 7.42869H70.3107H73.9215H74.4215V7.92869V9.85585C74.4215 9.85588 74.4215 9.85592 74.4215 9.85595C74.4216 10.4812 74.1732 11.0808 73.7311 11.523C73.2889 11.9652 72.6892 12.2138 72.0638 12.2142H72.0635H71.3253H66.1466H66.1251L66.1038 12.2123C65.5367 12.1636 65.0061 11.9126 64.6087 11.5053C64.3231 11.2126 64.1201 10.8531 64.0157 10.4632H63.9353V9.96316V8.92525V8.91464L63.9354 8.91465C63.9365 8.86227 63.9271 8.81016 63.9078 8.76139C63.8885 8.71268 63.8596 8.66823 63.8229 8.63068C63.7861 8.59315 63.7422 8.56335 63.6938 8.54299L63.8874 8.08202L63.6938 8.54299C63.6453 8.52263 63.5932 8.51213 63.5406 8.51213C63.488 8.51213 63.4359 8.52263 63.3874 8.54299C63.339 8.56335 63.2951 8.59316 63.2583 8.63068C63.2216 8.66814 63.1927 8.71257 63.1734 8.76139C63.1541 8.81017 63.1447 8.86227 63.1458 8.91464L63.1461 8.92525H63.1459V10.178V10.5526V10.5534H62.6459C62.6471 10.8666 62.5237 11.1674 62.3029 11.3897L62.6577 11.742C62.3434 12.0584 61.9163 12.237 61.4704 12.2386C61.0245 12.2403 60.5962 12.0649 60.2796 11.7509C59.963 11.4369 59.7841 11.01 59.7824 10.5641L59.7824 10.5622L59.7824 8.92525V8.91464L59.7825 8.91465C59.7836 8.86214 59.7742 8.81004 59.755 8.76139C59.7357 8.71268 59.7068 8.66823 59.67 8.63068C59.6333 8.59316 59.5894 8.56335 59.5409 8.54299L59.7346 8.08202L59.5409 8.54299C59.4925 8.52263 59.4404 8.51213 59.3877 8.51213C59.3351 8.51213 59.283 8.52263 59.2346 8.54299C59.1861 8.56335 59.1422 8.59316 59.1055 8.63069C59.0687 8.66823 59.0398 8.71268 59.0205 8.76139L58.5556 8.57729L59.0205 8.76139C59.0012 8.81017 58.9918 8.86227 58.9929 8.91464L58.9932 8.92525H58.9931V10.5615M57.8189 12.1688L58.9931 10.5615M49.8166 22.1391C49.9305 22.1161 50.044 22.09 50.1569 22.0607C51.505 21.7102 52.6978 20.9208 53.5466 19.817C54.3951 18.7136 54.8514 17.3591 54.8435 15.9675V15.9648C54.8435 15.9343 54.8435 15.8904 54.8414 15.8451V8.92484C54.8414 8.82053 54.8829 8.72042 54.9568 8.64655C55.0308 8.57265 55.1312 8.53108 55.2359 8.53108C55.3406 8.53108 55.441 8.57265 55.5149 8.64655L55.8684 8.29286L55.5149 8.64655C55.5889 8.72042 55.6303 8.82053 55.6303 8.92484L55.6303 10.5711L55.6303 10.5729C55.632 11.0187 55.8109 11.4455 56.1274 11.7595C56.4439 12.0734 56.8722 12.2487 57.318 12.2471C57.3496 12.247 57.3811 12.246 57.4125 12.2441C56.877 12.3644 56.3601 12.5657 55.8804 12.8433L55.6308 12.9877V13.2761V15.8822C55.6243 17.5489 54.9571 19.1452 53.7752 20.3215C52.71 21.3817 51.305 22.0228 49.8166 22.1391Z" fill="#B0BF24" stroke="#B0BF24"/>
<path d="M43 19.1425L43.7269 18.6125" stroke="#B0BF24" stroke-width="1.02" stroke-linecap="round" stroke-linejoin="round"/>
<path d="M69.1445 15.558L70.4597 14.5679L69.1445 15.558Z" fill="#B0BF24"/>
<path d="M69.1445 15.558L70.4597 14.5679" stroke="#B0BF24" stroke-width="1.529" stroke-linecap="round"/>
</svg>
